<?xml version="1.0" encoding="UTF-8"?>
<svg id="Layer_1" xmlns="http://www.w3.org/2000/svg" version="1.1" viewBox="0 0 500 500">
  <!-- Generator: Adobe Illustrator 29.2.1, SVG Export Plug-In . SVG Version: 2.1.0 Build 116)  -->
  <defs>
    <style>
      .st0 {
        fill: none;
      }

      .st0, .st1, .st2 {
        stroke-miterlimit: 10;
      }

      .st0, .st2 {
        stroke: #111317;
      }

      .st1 {
        stroke: #888;
        stroke-width: 15px;
      }

      .st1, .st3 {
        fill: #888;
      }

      .st4 {
        fill: #fff;
      }

      .st2, .st5 {
        fill: #111317;
      }

      .st6 {
        fill: #ddd;
      }
    </style>
  </defs>
  <rect class="st3" x="23" y="41.8" width="450" height="450" rx="50.1" ry="50.1"/>
  <g id="Layer_3">
    <g>
      <g>
        <rect class="st6" x="25" y="25" width="450" height="450" rx="50.1" ry="50.1"/>
        <path class="st5" d="M430.9,481H69.1c-27.7,0-50.1-22.4-50.1-50.1V69.1c0-27.7,22.4-50.1,50.1-50.1h361.8c27.7,0,50.1,22.4,50.1,50.1v361.8c0,27.7-22.4,50.1-50.1,50.1h0ZM81.1,469h337.8c27.7,0,50.1-22.4,50.1-50.1V81.1c0-27.7-22.4-50.1-50.1-50.1H81.1c-27.7,0-50.1,22.4-50.1,50.1v337.8c0,27.7,22.4,50.1,50.1,50.1Z"/>
      </g>
      <polygon class="st4" points="35.3 41.7 75 76.6 469 76.6 465.2 51.4 444 31 51.8 31 35.3 41.7"/>
      <polygon class="st3" points="464.3 37.3 429.4 76.9 429.4 469 454.6 465.2 475 444.1 475 53.8 464.3 37.3"/>
      <polygon class="st4" points="39.6 469.5 74.5 429.7 74.5 36 49.4 39.8 28.9 61 28.9 452.9 39.6 469.5"/>
      <polygon class="st3" points="35 464.3 74.8 429.4 469 429.4 465.2 454.6 444 475 51.6 475 35 464.3"/>
      <g>
        <rect class="st0" x="25" y="25" width="450" height="450" rx="50.1" ry="50.1"/>
        <path class="st2" d="M430.9,481H69.1c-27.7,0-50.1-22.4-50.1-50.1V69.1c0-27.7,22.4-50.1,50.1-50.1h361.8c27.7,0,50.1,22.4,50.1,50.1v361.8c0,27.7-22.4,50.1-50.1,50.1h0ZM81.1,469h337.8c27.7,0,50.1-22.4,50.1-50.1V81.1c0-27.7-22.4-50.1-50.1-50.1H81.1c-27.7,0-50.1,22.4-50.1,50.1v337.8c0,27.7,22.4,50.1,50.1,50.1Z"/>
      </g>
    </g>
  </g>
  <path class="st1" d="M128.6,103.3h200.2l4.1,1.9,60.1,60.2,1.4,2.9.4,199.5c-1.3,14.4-12.6,25.7-27,27h-237.6c-14.4-1.3-25.7-12.6-27-27v-238.2c1.6-13.6,11.9-24.3,25.4-26.3h0ZM190.7,122.5h-60.5c-2.2,0-6.9,4.3-7.2,6.8v238.7c0,2.7,4.8,7.3,7.2,7.3h21.6v-72c0-11,14.8-24.9,25.9-25.1h140.9c11.8-.7,27.6,13.5,27.6,25.1v72h21.6c2.2,0,6.9-4.3,7.2-6.8l.4-192.8-52.5-53.2h-15.5v61.1c0,1.5-1.9,5.5-2.7,7-3.4,6.2-9.5,9.3-16.4,9.7-25.9,1.8-54-1.3-80.2-.1-7,0-17.4-9.2-17.4-16v-61.7ZM287.9,122.5h-77.8v58.3h77.8v-58.3ZM326.8,375.3v-70.2c0-2.9-5.5-7.9-8.8-7.6l-139.5.3c-2.7.2-7.3,4.9-7.3,7.3v70.2h155.6Z"/>
</svg>