<?xml version="1.0" encoding="UTF-8"?>
<svg id="Layer_1" xmlns="http://www.w3.org/2000/svg" version="1.1" viewBox="0 0 500 500">
  <!-- Generator: Adobe Illustrator 29.2.1, SVG Export Plug-In . SVG Version: 2.1.0 Build 116)  -->
  <defs>
    <style>
      .st0 {
        fill: none;
      }

      .st0, .st1 {
        stroke: #111317;
        stroke-miterlimit: 10;
      }

      .st2 {
        fill: #590d22;
      }

      .st1, .st3 {
        fill: #111317;
      }

      .st4 {
        fill: #a4133c;
      }
    </style>
  </defs>
  <g id="Layer_3">
    <g>
      <g>
        <rect class="st4" x="25" y="25" width="450" height="450" rx="50.1" ry="50.1"/>
        <path class="st3" d="M430.9,481H69.1c-27.7,0-50.1-22.4-50.1-50.1V69.1c0-27.7,22.4-50.1,50.1-50.1h361.8c27.7,0,50.1,22.4,50.1,50.1v361.8c0,27.7-22.4,50.1-50.1,50.1h0ZM81.1,469h337.8c27.7,0,50.1-22.4,50.1-50.1V81.1c0-27.7-22.4-50.1-50.1-50.1H81.1c-27.7,0-50.1,22.4-50.1,50.1v337.8c0,27.7,22.4,50.1,50.1,50.1Z"/>
      </g>
      <polygon class="st2" points="35.3 41.7 75 76.6 469 76.6 465.2 51.4 444 31 51.8 31 35.3 41.7"/>
      <polygon class="st2" points="464.3 37.3 429.4 76.9 429.4 469 454.6 465.2 475 444.1 475 53.8 464.3 37.3"/>
      <polygon class="st2" points="39.6 469.5 74.5 429.7 74.5 36 49.4 39.8 28.9 61 28.9 452.9 39.6 469.5"/>
      <polygon class="st2" points="35 464.3 74.8 429.4 469 429.4 465.2 454.6 444 475 51.6 475 35 464.3"/>
      <g>
        <rect class="st0" x="25" y="25" width="450" height="450" rx="50.1" ry="50.1"/>
        <path class="st1" d="M430.9,481H69.1c-27.7,0-50.1-22.4-50.1-50.1V69.1c0-27.7,22.4-50.1,50.1-50.1h361.8c27.7,0,50.1,22.4,50.1,50.1v361.8c0,27.7-22.4,50.1-50.1,50.1h0ZM81.1,469h337.8c27.7,0,50.1-22.4,50.1-50.1V81.1c0-27.7-22.4-50.1-50.1-50.1H81.1c-27.7,0-50.1,22.4-50.1,50.1v337.8c0,27.7,22.4,50.1,50.1,50.1Z"/>
      </g>
    </g>
  </g>
  <g id="Layer_4">
    <rect class="st2" x="212.3" y="116.1" width="76.7" height="270.6" rx="15.6" ry="15.6" transform="translate(-104.4 250.8) rotate(-45)"/>
    <rect class="st2" x="113.6" y="208.6" width="270.6" height="76.7" rx="15.6" ry="15.6" transform="translate(-101.7 248.4) rotate(-45)"/>
  </g>
</svg>