<?xml version="1.0" encoding="UTF-8"?>
<svg id="Layer_1" xmlns="http://www.w3.org/2000/svg" version="1.1" viewBox="0 0 500 500">
  <!-- Generator: Adobe Illustrator 29.2.1, SVG Export Plug-In . SVG Version: 2.1.0 Build 116)  -->
  <defs>
    <style>
      .st0 {
        fill: none;
      }

      .st0, .st1, .st2 {
        stroke-miterlimit: 10;
      }

      .st0, .st2 {
        stroke: #111317;
      }

      .st1 {
        stroke: #333;
        stroke-width: 10px;
      }

      .st1, .st3 {
        fill: #333;
      }

      .st2, .st4 {
        fill: #111317;
      }

      .st5 {
        fill: #888;
      }
    </style>
  </defs>
  <g id="Layer_3">
    <g>
      <g>
        <rect class="st5" x="25" y="25" width="450" height="450" rx="50.1" ry="50.1"/>
        <path class="st4" d="M430.9,481H69.1c-27.7,0-50.1-22.4-50.1-50.1V69.1c0-27.7,22.4-50.1,50.1-50.1h361.8c27.7,0,50.1,22.4,50.1,50.1v361.8c0,27.7-22.4,50.1-50.1,50.1h0ZM81.1,469h337.8c27.7,0,50.1-22.4,50.1-50.1V81.1c0-27.7-22.4-50.1-50.1-50.1H81.1c-27.7,0-50.1,22.4-50.1,50.1v337.8c0,27.7,22.4,50.1,50.1,50.1Z"/>
      </g>
      <polygon class="st3" points="35.3 41.7 75 76.6 469 76.6 465.2 51.4 444 31 51.8 31 35.3 41.7"/>
      <polygon class="st3" points="464.3 37.3 429.4 76.9 429.4 469 454.6 465.2 475 444.1 475 53.8 464.3 37.3"/>
      <polygon class="st3" points="39.6 469.5 74.5 429.7 74.5 36 49.4 39.8 28.9 61 28.9 452.9 39.6 469.5"/>
      <polygon class="st3" points="35 464.3 74.8 429.4 469 429.4 465.2 454.6 444 475 51.6 475 35 464.3"/>
      <g>
        <rect class="st0" x="25" y="25" width="450" height="450" rx="50.1" ry="50.1"/>
        <path class="st2" d="M430.9,481H69.1c-27.7,0-50.1-22.4-50.1-50.1V69.1c0-27.7,22.4-50.1,50.1-50.1h361.8c27.7,0,50.1,22.4,50.1,50.1v361.8c0,27.7-22.4,50.1-50.1,50.1h0ZM81.1,469h337.8c27.7,0,50.1-22.4,50.1-50.1V81.1c0-27.7-22.4-50.1-50.1-50.1H81.1c-27.7,0-50.1,22.4-50.1,50.1v337.8c0,27.7,22.4,50.1,50.1,50.1Z"/>
      </g>
    </g>
  </g>
  <g>
    <path class="st1" d="M82.2,239.9c3-5.2,6.3-10.3,9.8-15.3,26.6-38,66.4-68.8,111.3-80.6,76-20,149.5,11.2,196.7,71.4,4.2,5.3,12.7,16.2,15.2,22,3.5,8.2-2.9,15-7.4,21.5-51,74.8-146.4,115.2-230,73-51.8-26.1-77.2-58.8-88.3-77.4-5.3-9-7.3-14.6-7.3-14.6h0ZM240,159.1c-55.7,3.3-104.6,37.7-134.9,83.1,37.5,57.2,101.2,93.2,170.9,81.5,48.4-8.2,90.1-40.8,117.2-80.7v-1.2c-34.5-50.8-89.9-86.4-153.2-82.7h0Z"/>
    <path class="st1" d="M243.2,180c56.1-5,90.5,60.9,53.3,103.6-26.5,30.4-73.9,28.2-97.8-4-28.9-38.8-3.4-95.3,44.5-99.6ZM244.5,200.9c-53.2,5.4-46.6,87.5,8.3,83.3,54.3-4.2,48.2-89.1-8.3-83.3h0Z"/>
  </g>
</svg>