<?xml version="1.0" encoding="UTF-8"?>
<svg id="Layer_1" xmlns="http://www.w3.org/2000/svg" version="1.1" xmlns:xlink="http://www.w3.org/1999/xlink" viewBox="0 0 500 500">
  <!-- Generator: Adobe Illustrator 29.2.1, SVG Export Plug-In . SVG Version: 2.1.0 Build 116)  -->
  <defs>
    <style>
      .st0 {
        fill: url(#Orange_Yellow9);
      }

      .st1 {
        fill: #fff;
      }

      .st2 {
        fill: none;
        stroke: #010101;
        stroke-miterlimit: 10;
      }

      .st3 {
        fill: url(#Orange_Yellow7);
      }

      .st4 {
        fill: url(#Orange_Yellow8);
      }

      .st5 {
        fill: url(#Orange_Yellow3);
      }

      .st6 {
        fill: url(#Orange_Yellow4);
      }

      .st7 {
        fill: url(#Orange_Yellow10);
      }

      .st8 {
        fill: url(#Orange_Yellow6);
      }

      .st9 {
        fill: url(#Orange_Yellow5);
      }

      .st10 {
        fill: url(#Orange_Yellow1);
      }

      .st11 {
        fill: url(#Orange_Yellow2);
      }

      .st12 {
        fill: url(#Orange_Yellow);
      }
    </style>
    <linearGradient id="Orange_Yellow" data-name="Orange, Yellow" x1="260" y1="55.3" x2="260" y2="468.7" gradientUnits="userSpaceOnUse">
      <stop offset="0" stop-color="#fff33b"/>
      <stop offset="0" stop-color="#fee62d"/>
      <stop offset=".1" stop-color="#fdd51b"/>
      <stop offset=".2" stop-color="#fdca0f"/>
      <stop offset=".3" stop-color="#fdc70c"/>
      <stop offset=".7" stop-color="#f3903f"/>
      <stop offset=".9" stop-color="#ed683c"/>
      <stop offset="1" stop-color="#e93e3a"/>
    </linearGradient>
    <linearGradient id="Orange_Yellow1" data-name="Orange, Yellow" x1="258" y1="53.3" x2="258" y2="466.7" xlink:href="#Orange_Yellow"/>
    <linearGradient id="Orange_Yellow2" data-name="Orange, Yellow" x1="256" y1="51.3" x2="256" y2="464.7" xlink:href="#Orange_Yellow"/>
    <linearGradient id="Orange_Yellow3" data-name="Orange, Yellow" x1="254" y1="49.3" x2="254" y2="462.7" xlink:href="#Orange_Yellow"/>
    <linearGradient id="Orange_Yellow4" data-name="Orange, Yellow" x1="252" y1="47.3" x2="252" y2="460.7" xlink:href="#Orange_Yellow"/>
    <linearGradient id="Orange_Yellow5" data-name="Orange, Yellow" x1="250" y1="45.3" x2="250" y2="458.7" xlink:href="#Orange_Yellow"/>
    <linearGradient id="Orange_Yellow6" data-name="Orange, Yellow" x1="248" y1="43.3" x2="248" y2="456.7" xlink:href="#Orange_Yellow"/>
    <linearGradient id="Orange_Yellow7" data-name="Orange, Yellow" x1="246" y1="41.3" x2="246" y2="454.7" xlink:href="#Orange_Yellow"/>
    <linearGradient id="Orange_Yellow8" data-name="Orange, Yellow" x1="244" y1="39.3" x2="244" y2="452.7" xlink:href="#Orange_Yellow"/>
    <linearGradient id="Orange_Yellow9" data-name="Orange, Yellow" x1="242" y1="37.3" x2="242" y2="450.7" xlink:href="#Orange_Yellow"/>
    <linearGradient id="Orange_Yellow10" data-name="Orange, Yellow" x1="240" y1="35.3" x2="240" y2="448.7" xlink:href="#Orange_Yellow"/>
  </defs>
  <path class="st2" d="M182,294.1"/>
  <g>
    <g>
      <path class="st12" d="M96.2,468.7c-15.6,0-31.4-1.9-45.8-5.5-3.1-.8-5.3-3.6-5.3-6.8l1.2-391c0-3.3,2.4-6.2,5.7-6.9,11.4-2.2,23.3-3.3,35.5-3.3,25.5,0,63.4,5.1,99.2,29.6,19.7,13.5,36.5,31.5,49.2,52.4l10.4-14.6c.9-1.2,6.4-8.6,16.2-8.6s.7,0,1.1,0c9.7.6,14.7,7.9,15.6,9.3.2.3.3.6.5.9l42.9,99.2,55.8-162c1-2.8,3.6-4.7,6.6-4.7h82.9c1.9,0,3.6.7,5,2.1s2,3.1,2,5l-1.2,392.6c0,3.9-3.1,7-7,7h-62.1c-1.9,0-3.7-.8-5-2.1-1.3-1.3-2-3.1-2-5l2.2-168.5-41.8,129.1c-.3,1-.8,1.8-1.5,2.6-2.3,2.5-8.6,8.3-18.7,9-.7,0-1.3,0-2,0-8.7,0-14.9-4.1-17.2-5.9-.9-.7-1.7-1.7-2.1-2.8l-44.7-103.7c-1.9,10-5,22.2-9.8,35.3-15.2,41-41.6,73.4-76.6,93.7-26.8,15.6-56.8,23.5-89.2,23.5ZM126.4,343.6c10.3-6.9,22-17.4,31.5-32.6,15.2-24.4,16.6-48.9,16.2-61.3,0-.2,0-.3,0-.5.4-13.5-1.6-39.8-18.8-65.2-8.9-13.1-19.5-22.4-28.9-28.8v188.4Z"/>
      <path class="st1" d="M385,63.8l-61.7,179.1-50.1-115.8c-.3-.5-3.6-5.6-10-6-7-.4-11,5.3-11.2,5.6-5.6,7.9-11.2,15.8-16.8,23.6-7.8-14.9-23.5-39.8-52.5-59.7-55.3-37.9-115.8-27.9-129.4-25.2-.4,130.3-.8,260.7-1.2,391,13.3,3.3,71.9,16.4,129.8-17.2,81.4-47.3,85.9-143.1,86.1-149.4,18.3,42.5,36.6,84.9,54.9,127.4,1.3,1,6.7,4.9,14.4,4.4,8.1-.6,13-5.7,14-6.8,18.7-57.7,37.4-115.4,56.1-173.1l-2.8,214.7h62.1l1.2-392.6h-82.9ZM163.9,314.6c-15,24.2-35.1,36.3-44.5,41.3v-213.1c9.7,5.2,27.4,16.3,41.7,37.3,19.7,28.9,20.3,58.4,20,69.3.4,10.4,0,37.5-17.2,65.3Z"/>
    </g>
    <g>
      <path class="st10" d="M94.2,466.7c-15.6,0-31.4-1.9-45.8-5.5-3.1-.8-5.3-3.6-5.3-6.8l1.2-391c0-3.3,2.4-6.2,5.7-6.9,11.4-2.2,23.3-3.3,35.5-3.3,25.5,0,63.4,5.1,99.2,29.6,19.7,13.5,36.5,31.5,49.2,52.4l10.4-14.6c.9-1.2,6.4-8.6,16.2-8.6s.7,0,1.1,0c9.7.6,14.7,7.9,15.6,9.3.2.3.3.6.5.9l42.9,99.2,55.8-162c1-2.8,3.6-4.7,6.6-4.7h82.9c1.9,0,3.6.7,5,2.1s2,3.1,2,5l-1.2,392.6c0,3.9-3.1,7-7,7h-62.1c-1.9,0-3.7-.8-5-2.1-1.3-1.3-2-3.1-2-5l2.2-168.5-41.8,129.1c-.3,1-.8,1.8-1.5,2.6-2.3,2.5-8.6,8.3-18.7,9-.7,0-1.3,0-2,0-8.7,0-14.9-4.1-17.2-5.9-.9-.7-1.7-1.7-2.1-2.8l-44.7-103.7c-1.9,10-5,22.2-9.8,35.3-15.2,41-41.6,73.4-76.6,93.7-26.8,15.6-56.8,23.5-89.2,23.5ZM124.4,341.6c10.3-6.9,22-17.4,31.5-32.6,15.2-24.4,16.6-48.9,16.2-61.3,0-.2,0-.3,0-.5.4-13.5-1.6-39.8-18.8-65.2-8.9-13.1-19.5-22.4-28.9-28.8v188.4Z"/>
      <path class="st1" d="M383,61.8l-61.7,179.1-50.1-115.8c-.3-.5-3.6-5.6-10-6-7-.4-11,5.3-11.2,5.6-5.6,7.9-11.2,15.8-16.8,23.6-7.8-14.9-23.5-39.8-52.5-59.7-55.3-37.9-115.8-27.9-129.4-25.2-.4,130.3-.8,260.7-1.2,391,13.3,3.3,71.9,16.4,129.8-17.2,81.4-47.3,85.9-143.1,86.1-149.4,18.3,42.5,36.6,84.9,54.9,127.4,1.3,1,6.7,4.9,14.4,4.4,8.1-.6,13-5.7,14-6.8,18.7-57.7,37.4-115.4,56.1-173.1l-2.8,214.7h62.1l1.2-392.6h-82.9ZM161.9,312.6c-15,24.2-35.1,36.3-44.5,41.3v-213.1c9.7,5.2,27.4,16.3,41.7,37.3,19.7,28.9,20.3,58.4,20,69.3.4,10.4,0,37.5-17.2,65.3Z"/>
    </g>
    <g>
      <path class="st11" d="M92.2,464.7c-15.6,0-31.4-1.9-45.8-5.5-3.1-.8-5.3-3.6-5.3-6.8l1.2-391c0-3.3,2.4-6.2,5.7-6.9,11.4-2.2,23.3-3.3,35.5-3.3,25.5,0,63.4,5.1,99.2,29.6,19.7,13.5,36.5,31.5,49.2,52.4l10.4-14.6c.9-1.2,6.4-8.6,16.2-8.6s.7,0,1.1,0c9.7.6,14.7,7.9,15.6,9.3.2.3.3.6.5.9l42.9,99.2,55.8-162c1-2.8,3.6-4.7,6.6-4.7h82.9c1.9,0,3.6.7,5,2.1s2,3.1,2,5l-1.2,392.6c0,3.9-3.1,7-7,7h-62.1c-1.9,0-3.7-.8-5-2.1-1.3-1.3-2-3.1-2-5l2.2-168.5-41.8,129.1c-.3,1-.8,1.8-1.5,2.6-2.3,2.5-8.6,8.3-18.7,9-.7,0-1.3,0-2,0-8.7,0-14.9-4.1-17.2-5.9-.9-.7-1.7-1.7-2.1-2.8l-44.7-103.7c-1.9,10-5,22.2-9.8,35.3-15.2,41-41.6,73.4-76.6,93.7-26.8,15.6-56.8,23.5-89.2,23.5ZM122.4,339.6c10.3-6.9,22-17.4,31.5-32.6,15.2-24.4,16.6-48.9,16.2-61.3,0-.2,0-.3,0-.5.4-13.5-1.6-39.8-18.8-65.2-8.9-13.1-19.5-22.4-28.9-28.8v188.4Z"/>
      <path class="st1" d="M381,59.8l-61.7,179.1-50.1-115.8c-.3-.5-3.6-5.6-10-6-7-.4-11,5.3-11.2,5.6-5.6,7.9-11.2,15.8-16.8,23.6-7.8-14.9-23.5-39.8-52.5-59.7-55.3-37.9-115.8-27.9-129.4-25.2-.4,130.3-.8,260.7-1.2,391,13.3,3.3,71.9,16.4,129.8-17.2,81.4-47.3,85.9-143.1,86.1-149.4,18.3,42.5,36.6,84.9,54.9,127.4,1.3,1,6.7,4.9,14.4,4.4,8.1-.6,13-5.7,14-6.8,18.7-57.7,37.4-115.4,56.1-173.1l-2.8,214.7h62.1l1.2-392.6h-82.9ZM159.9,310.6c-15,24.2-35.1,36.3-44.5,41.3v-213.1c9.7,5.2,27.4,16.3,41.7,37.3,19.7,28.9,20.3,58.4,20,69.3.4,10.4,0,37.5-17.2,65.3Z"/>
    </g>
    <g>
      <path class="st5" d="M90.2,462.7c-15.6,0-31.4-1.9-45.8-5.5-3.1-.8-5.3-3.6-5.3-6.8l1.2-391c0-3.3,2.4-6.2,5.7-6.9,11.4-2.2,23.3-3.3,35.5-3.3,25.5,0,63.4,5.1,99.2,29.6,19.7,13.5,36.5,31.5,49.2,52.4l10.4-14.6c.9-1.2,6.4-8.6,16.2-8.6s.7,0,1.1,0c9.7.6,14.7,7.9,15.6,9.3.2.3.3.6.5.9l42.9,99.2,55.8-162c1-2.8,3.6-4.7,6.6-4.7h82.9c1.9,0,3.6.7,5,2.1s2,3.1,2,5l-1.2,392.6c0,3.9-3.1,7-7,7h-62.1c-1.9,0-3.7-.8-5-2.1-1.3-1.3-2-3.1-2-5l2.2-168.5-41.8,129.1c-.3,1-.8,1.8-1.5,2.6-2.3,2.5-8.6,8.3-18.7,9-.7,0-1.3,0-2,0-8.7,0-14.9-4.1-17.2-5.9-.9-.7-1.7-1.7-2.1-2.8l-44.7-103.7c-1.9,10-5,22.2-9.8,35.3-15.2,41-41.6,73.4-76.6,93.7-26.8,15.6-56.8,23.5-89.2,23.5ZM120.4,337.6c10.3-6.9,22-17.4,31.5-32.6,15.2-24.4,16.6-48.9,16.2-61.3,0-.2,0-.3,0-.5.4-13.5-1.6-39.8-18.8-65.2-8.9-13.1-19.5-22.4-28.9-28.8v188.4Z"/>
      <path class="st1" d="M379,57.8l-61.7,179.1-50.1-115.8c-.3-.5-3.6-5.6-10-6-7-.4-11,5.3-11.2,5.6-5.6,7.9-11.2,15.8-16.8,23.6-7.8-14.9-23.5-39.8-52.5-59.7-55.3-37.9-115.8-27.9-129.4-25.2-.4,130.3-.8,260.7-1.2,391,13.3,3.3,71.9,16.4,129.8-17.2,81.4-47.3,85.9-143.1,86.1-149.4,18.3,42.5,36.6,84.9,54.9,127.4,1.3,1,6.7,4.9,14.4,4.4,8.1-.6,13-5.7,14-6.8,18.7-57.7,37.4-115.4,56.1-173.1l-2.8,214.7h62.1l1.2-392.6h-82.9ZM157.9,308.6c-15,24.2-35.1,36.3-44.5,41.3v-213.1c9.7,5.2,27.4,16.3,41.7,37.3,19.7,28.9,20.3,58.4,20,69.3.4,10.4,0,37.5-17.2,65.3Z"/>
    </g>
    <g>
      <path class="st6" d="M88.2,460.7c-15.6,0-31.4-1.9-45.8-5.5-3.1-.8-5.3-3.6-5.3-6.8l1.2-391c0-3.3,2.4-6.2,5.7-6.9,11.4-2.2,23.3-3.3,35.5-3.3,25.5,0,63.4,5.1,99.2,29.6,19.7,13.5,36.5,31.5,49.2,52.4l10.4-14.6c.9-1.2,6.4-8.6,16.2-8.6s.7,0,1.1,0c9.7.6,14.7,7.9,15.6,9.3.2.3.3.6.5.9l42.9,99.2,55.8-162c1-2.8,3.6-4.7,6.6-4.7h82.9c1.9,0,3.6.7,5,2.1s2,3.1,2,5l-1.2,392.6c0,3.9-3.1,7-7,7h-62.1c-1.9,0-3.7-.8-5-2.1-1.3-1.3-2-3.1-2-5l2.2-168.5-41.8,129.1c-.3,1-.8,1.8-1.5,2.6-2.3,2.5-8.6,8.3-18.7,9-.7,0-1.3,0-2,0-8.7,0-14.9-4.1-17.2-5.9-.9-.7-1.7-1.7-2.1-2.8l-44.7-103.7c-1.9,10-5,22.2-9.8,35.3-15.2,41-41.6,73.4-76.6,93.7-26.8,15.6-56.8,23.5-89.2,23.5ZM118.4,335.6c10.3-6.9,22-17.4,31.5-32.6,15.2-24.4,16.6-48.9,16.2-61.3,0-.2,0-.3,0-.5.4-13.5-1.6-39.8-18.8-65.2-8.9-13.1-19.5-22.4-28.9-28.8v188.4Z"/>
      <path class="st1" d="M377,55.8l-61.7,179.1-50.1-115.8c-.3-.5-3.6-5.6-10-6-7-.4-11,5.3-11.2,5.6-5.6,7.9-11.2,15.8-16.8,23.6-7.8-14.9-23.5-39.8-52.5-59.7-55.3-37.9-115.8-27.9-129.4-25.2-.4,130.3-.8,260.7-1.2,391,13.3,3.3,71.9,16.4,129.8-17.2,81.4-47.3,85.9-143.1,86.1-149.4,18.3,42.5,36.6,84.9,54.9,127.4,1.3,1,6.7,4.9,14.4,4.4,8.1-.6,13-5.7,14-6.8,18.7-57.7,37.4-115.4,56.1-173.1l-2.8,214.7h62.1l1.2-392.6h-82.9ZM155.9,306.6c-15,24.2-35.1,36.3-44.5,41.3v-213.1c9.7,5.2,27.4,16.3,41.7,37.3,19.7,28.9,20.3,58.4,20,69.3.4,10.4,0,37.5-17.2,65.3Z"/>
    </g>
    <g>
      <path class="st9" d="M86.2,458.7c-15.6,0-31.4-1.9-45.8-5.5-3.1-.8-5.3-3.6-5.3-6.8l1.2-391c0-3.3,2.4-6.2,5.7-6.9,11.4-2.2,23.3-3.3,35.5-3.3,25.5,0,63.4,5.1,99.2,29.6,19.7,13.5,36.5,31.5,49.2,52.4l10.4-14.6c.9-1.2,6.4-8.6,16.2-8.6s.7,0,1.1,0c9.7.6,14.7,7.9,15.6,9.3.2.3.3.6.5.9l42.9,99.2,55.8-162c1-2.8,3.6-4.7,6.6-4.7h82.9c1.9,0,3.6.7,5,2.1s2,3.1,2,5l-1.2,392.6c0,3.9-3.1,7-7,7h-62.1c-1.9,0-3.7-.8-5-2.1-1.3-1.3-2-3.1-2-5l2.2-168.5-41.8,129.1c-.3,1-.8,1.8-1.5,2.6-2.3,2.5-8.6,8.3-18.7,9-.7,0-1.3,0-2,0-8.7,0-14.9-4.1-17.2-5.9-.9-.7-1.7-1.7-2.1-2.8l-44.7-103.7c-1.9,10-5,22.2-9.8,35.3-15.2,41-41.6,73.4-76.6,93.7-26.8,15.6-56.8,23.5-89.2,23.5ZM116.4,333.6c10.3-6.9,22-17.4,31.5-32.6,15.2-24.4,16.6-48.9,16.2-61.3,0-.2,0-.3,0-.5.4-13.5-1.6-39.8-18.8-65.2-8.9-13.1-19.5-22.4-28.9-28.8v188.4Z"/>
      <path class="st1" d="M375,53.8l-61.7,179.1-50.1-115.8c-.3-.5-3.6-5.6-10-6-7-.4-11,5.3-11.2,5.6-5.6,7.9-11.2,15.8-16.8,23.6-7.8-14.9-23.5-39.8-52.5-59.7-55.3-37.9-115.8-27.9-129.4-25.2-.4,130.3-.8,260.7-1.2,391,13.3,3.3,71.9,16.4,129.8-17.2,81.4-47.3,85.9-143.1,86.1-149.4,18.3,42.5,36.6,84.9,54.9,127.4,1.3,1,6.7,4.9,14.4,4.4,8.1-.6,13-5.7,14-6.8,18.7-57.7,37.4-115.4,56.1-173.1l-2.8,214.7h62.1l1.2-392.6h-82.9ZM153.9,304.6c-15,24.2-35.1,36.3-44.5,41.3v-213.1c9.7,5.2,27.4,16.3,41.7,37.3,19.7,28.9,20.3,58.4,20,69.3.4,10.4,0,37.5-17.2,65.3Z"/>
    </g>
    <g>
      <path class="st8" d="M84.2,456.7c-15.6,0-31.4-1.9-45.8-5.5-3.1-.8-5.3-3.6-5.3-6.8l1.2-391c0-3.3,2.4-6.2,5.7-6.9,11.4-2.2,23.3-3.3,35.5-3.3,25.5,0,63.4,5.1,99.2,29.6,19.7,13.5,36.5,31.5,49.2,52.4l10.4-14.6c.9-1.2,6.4-8.6,16.2-8.6s.7,0,1.1,0c9.7.6,14.7,7.9,15.6,9.3.2.3.3.6.5.9l42.9,99.2,55.8-162c1-2.8,3.6-4.7,6.6-4.7h82.9c1.9,0,3.6.7,5,2.1s2,3.1,2,5l-1.2,392.6c0,3.9-3.1,7-7,7h-62.1c-1.9,0-3.7-.8-5-2.1-1.3-1.3-2-3.1-2-5l2.2-168.5-41.8,129.1c-.3,1-.8,1.8-1.5,2.6-2.3,2.5-8.6,8.3-18.7,9-.7,0-1.3,0-2,0-8.7,0-14.9-4.1-17.2-5.9-.9-.7-1.7-1.7-2.1-2.8l-44.7-103.7c-1.9,10-5,22.2-9.8,35.3-15.2,41-41.6,73.4-76.6,93.7-26.8,15.6-56.8,23.5-89.2,23.5ZM114.4,331.6c10.3-6.9,22-17.4,31.5-32.6,15.2-24.4,16.6-48.9,16.2-61.3,0-.2,0-.3,0-.5.4-13.5-1.6-39.8-18.8-65.2-8.9-13.1-19.5-22.4-28.9-28.8v188.4Z"/>
      <path class="st1" d="M373,51.8l-61.7,179.1-50.1-115.8c-.3-.5-3.6-5.6-10-6-7-.4-11,5.3-11.2,5.6-5.6,7.9-11.2,15.8-16.8,23.6-7.8-14.9-23.5-39.8-52.5-59.7-55.3-37.9-115.8-27.9-129.4-25.2-.4,130.3-.8,260.7-1.2,391,13.3,3.3,71.9,16.4,129.8-17.2,81.4-47.3,85.9-143.1,86.1-149.4,18.3,42.5,36.6,84.9,54.9,127.4,1.3,1,6.7,4.9,14.4,4.4,8.1-.6,13-5.7,14-6.8,18.7-57.7,37.4-115.4,56.1-173.1l-2.8,214.7h62.1l1.2-392.6h-82.9ZM151.9,302.6c-15,24.2-35.1,36.3-44.5,41.3v-213.1c9.7,5.2,27.4,16.3,41.7,37.3,19.7,28.9,20.3,58.4,20,69.3.4,10.4,0,37.5-17.2,65.3Z"/>
    </g>
    <g>
      <path class="st3" d="M82.2,454.7c-15.6,0-31.4-1.9-45.8-5.5-3.1-.8-5.3-3.6-5.3-6.8l1.2-391c0-3.3,2.4-6.2,5.7-6.9,11.4-2.2,23.3-3.3,35.5-3.3,25.5,0,63.4,5.1,99.2,29.6,19.7,13.5,36.5,31.5,49.2,52.4l10.4-14.6c.9-1.2,6.4-8.6,16.2-8.6s.7,0,1.1,0c9.7.6,14.7,7.9,15.6,9.3.2.3.3.6.5.9l42.9,99.2,55.8-162c1-2.8,3.6-4.7,6.6-4.7h82.9c1.9,0,3.6.7,5,2.1s2,3.1,2,5l-1.2,392.6c0,3.9-3.1,7-7,7h-62.1c-1.9,0-3.7-.8-5-2.1-1.3-1.3-2-3.1-2-5l2.2-168.5-41.8,129.1c-.3,1-.8,1.8-1.5,2.6-2.3,2.5-8.6,8.3-18.7,9-.7,0-1.3,0-2,0-8.7,0-14.9-4.1-17.2-5.9-.9-.7-1.7-1.7-2.1-2.8l-44.7-103.7c-1.9,10-5,22.2-9.8,35.3-15.2,41-41.6,73.4-76.6,93.7-26.8,15.6-56.8,23.5-89.2,23.5ZM112.4,329.6c10.3-6.9,22-17.4,31.5-32.6,15.2-24.4,16.6-48.9,16.2-61.3,0-.2,0-.3,0-.5.4-13.5-1.6-39.8-18.8-65.2-8.9-13.1-19.5-22.4-28.9-28.8v188.4Z"/>
      <path class="st1" d="M371,49.8l-61.7,179.1-50.1-115.8c-.3-.5-3.6-5.6-10-6-7-.4-11,5.3-11.2,5.6-5.6,7.9-11.2,15.8-16.8,23.6-7.8-14.9-23.5-39.8-52.5-59.7-55.3-37.9-115.8-27.9-129.4-25.2-.4,130.3-.8,260.7-1.2,391,13.3,3.3,71.9,16.4,129.8-17.2,81.4-47.3,85.9-143.1,86.1-149.4,18.3,42.5,36.6,84.9,54.9,127.4,1.3,1,6.7,4.9,14.4,4.4,8.1-.6,13-5.7,14-6.8,18.7-57.7,37.4-115.4,56.1-173.1l-2.8,214.7h62.1l1.2-392.6h-82.9ZM149.9,300.6c-15,24.2-35.1,36.3-44.5,41.3v-213.1c9.7,5.2,27.4,16.3,41.7,37.3,19.7,28.9,20.3,58.4,20,69.3.4,10.4,0,37.5-17.2,65.3Z"/>
    </g>
    <g>
      <path class="st4" d="M80.2,452.7c-15.6,0-31.4-1.9-45.8-5.5-3.1-.8-5.3-3.6-5.3-6.8l1.2-391c0-3.3,2.4-6.2,5.7-6.9,11.4-2.2,23.3-3.3,35.5-3.3,25.5,0,63.4,5.1,99.2,29.6,19.7,13.5,36.5,31.5,49.2,52.4l10.4-14.6c.9-1.2,6.4-8.6,16.2-8.6s.7,0,1.1,0c9.7.6,14.7,7.9,15.6,9.3.2.3.3.6.5.9l42.9,99.2,55.8-162c1-2.8,3.6-4.7,6.6-4.7h82.9c1.9,0,3.6.7,5,2.1s2,3.1,2,5l-1.2,392.6c0,3.9-3.1,7-7,7h-62.1c-1.9,0-3.7-.8-5-2.1-1.3-1.3-2-3.1-2-5l2.2-168.5-41.8,129.1c-.3,1-.8,1.8-1.5,2.6-2.3,2.5-8.6,8.3-18.7,9-.7,0-1.3,0-2,0-8.7,0-14.9-4.1-17.2-5.9-.9-.7-1.7-1.7-2.1-2.8l-44.7-103.7c-1.9,10-5,22.2-9.8,35.3-15.2,41-41.6,73.4-76.6,93.7-26.8,15.6-56.8,23.5-89.2,23.5ZM110.4,327.6c10.3-6.9,22-17.4,31.5-32.6,15.2-24.4,16.6-48.9,16.2-61.3,0-.2,0-.3,0-.5.4-13.5-1.6-39.8-18.8-65.2-8.9-13.1-19.5-22.4-28.9-28.8v188.4Z"/>
      <path class="st1" d="M369,47.8l-61.7,179.1-50.1-115.8c-.3-.5-3.6-5.6-10-6-7-.4-11,5.3-11.2,5.6-5.6,7.9-11.2,15.8-16.8,23.6-7.8-14.9-23.5-39.8-52.5-59.7-55.3-37.9-115.8-27.9-129.4-25.2-.4,130.3-.8,260.7-1.2,391,13.3,3.3,71.9,16.4,129.8-17.2,81.4-47.3,85.9-143.1,86.1-149.4,18.3,42.5,36.6,84.9,54.9,127.4,1.3,1,6.7,4.9,14.4,4.4,8.1-.6,13-5.7,14-6.8,18.7-57.7,37.4-115.4,56.1-173.1l-2.8,214.7h62.1l1.2-392.6h-82.9ZM147.9,298.6c-15,24.2-35.1,36.3-44.5,41.3V126.8c9.7,5.2,27.4,16.3,41.7,37.3,19.7,28.9,20.3,58.4,20,69.3.4,10.4,0,37.5-17.2,65.3Z"/>
    </g>
    <g>
      <path class="st0" d="M78.2,450.7c-15.6,0-31.4-1.9-45.8-5.5-3.1-.8-5.3-3.6-5.3-6.8l1.2-391c0-3.3,2.4-6.2,5.7-6.9,11.4-2.2,23.3-3.3,35.5-3.3,25.5,0,63.4,5.1,99.2,29.6,19.7,13.5,36.5,31.5,49.2,52.4l10.4-14.6c.9-1.2,6.4-8.6,16.2-8.6s.7,0,1.1,0c9.7.6,14.7,7.9,15.6,9.3.2.3.3.6.5.9l42.9,99.2,55.8-162c1-2.8,3.6-4.7,6.6-4.7h82.9c1.9,0,3.6.7,5,2.1s2,3.1,2,5l-1.2,392.6c0,3.9-3.1,7-7,7h-62.1c-1.9,0-3.7-.8-5-2.1-1.3-1.3-2-3.1-2-5l2.2-168.5-41.8,129.1c-.3,1-.8,1.8-1.5,2.6-2.3,2.5-8.6,8.3-18.7,9-.7,0-1.3,0-2,0-8.7,0-14.9-4.1-17.2-5.9-.9-.7-1.7-1.7-2.1-2.8l-44.7-103.7c-1.9,10-5,22.2-9.8,35.3-15.2,41-41.6,73.4-76.6,93.7-26.8,15.6-56.8,23.5-89.2,23.5ZM108.4,325.6c10.3-6.9,22-17.4,31.5-32.6,15.2-24.4,16.6-48.9,16.2-61.3,0-.2,0-.3,0-.5.4-13.5-1.6-39.8-18.8-65.2-8.9-13.1-19.5-22.4-28.9-28.8v188.4Z"/>
      <path class="st1" d="M367,45.8l-61.7,179.1-50.1-115.8c-.3-.5-3.6-5.6-10-6-7-.4-11,5.3-11.2,5.6-5.6,7.9-11.2,15.8-16.8,23.6-7.8-14.9-23.5-39.8-52.5-59.7-55.3-37.9-115.8-27.9-129.4-25.2-.4,130.3-.8,260.7-1.2,391,13.3,3.3,71.9,16.4,129.8-17.2,81.4-47.3,85.9-143.1,86.1-149.4,18.3,42.5,36.6,84.9,54.9,127.4,1.3,1,6.7,4.9,14.4,4.4,8.1-.6,13-5.7,14-6.8,18.7-57.7,37.4-115.4,56.1-173.1l-2.8,214.7h62.1l1.2-392.6h-82.9ZM145.9,296.6c-15,24.2-35.1,36.3-44.5,41.3V124.8c9.7,5.2,27.4,16.3,41.7,37.3,19.7,28.9,20.3,58.4,20,69.3.4,10.4,0,37.5-17.2,65.3Z"/>
    </g>
    <g>
      <path class="st7" d="M76.2,448.7c-15.6,0-31.4-1.9-45.8-5.5-3.1-.8-5.3-3.6-5.3-6.8l1.2-391c0-3.3,2.4-6.2,5.7-6.9,11.4-2.2,23.3-3.3,35.5-3.3,25.5,0,63.4,5.1,99.2,29.6,19.7,13.5,36.5,31.5,49.2,52.4l10.4-14.6c.9-1.2,6.4-8.6,16.2-8.6s.7,0,1.1,0c9.7.6,14.7,7.9,15.6,9.3.2.3.3.6.5.9l42.9,99.2,55.8-162c1-2.8,3.6-4.7,6.6-4.7h82.9c1.9,0,3.6.7,5,2.1s2,3.1,2,5l-1.2,392.6c0,3.9-3.1,7-7,7h-62.1c-1.9,0-3.7-.8-5-2.1-1.3-1.3-2-3.1-2-5l2.2-168.5-41.8,129.1c-.3,1-.8,1.8-1.5,2.6-2.3,2.5-8.6,8.3-18.7,9-.7,0-1.3,0-2,0-8.7,0-14.9-4.1-17.2-5.9-.9-.7-1.7-1.7-2.1-2.8l-44.7-103.7c-1.9,10-5,22.2-9.8,35.3-15.2,41-41.6,73.4-76.6,93.7-26.8,15.6-56.8,23.5-89.2,23.5ZM106.4,323.6c10.3-6.9,22-17.4,31.5-32.6,15.2-24.4,16.6-48.9,16.2-61.3,0-.2,0-.3,0-.5.4-13.5-1.6-39.8-18.8-65.2-8.9-13.1-19.5-22.4-28.9-28.8v188.4Z"/>
      <path class="st1" d="M365,43.8l-61.7,179.1-50.1-115.8c-.3-.5-3.6-5.6-10-6-7-.4-11,5.3-11.2,5.6-5.6,7.9-11.2,15.8-16.8,23.6-7.8-14.9-23.5-39.8-52.5-59.7-55.3-37.9-115.8-27.9-129.4-25.2-.4,130.3-.8,260.7-1.2,391,13.3,3.3,71.9,16.4,129.8-17.2,81.4-47.3,85.9-143.1,86.1-149.4,18.3,42.5,36.6,84.9,54.9,127.4,1.3,1,6.7,4.9,14.4,4.4,8.1-.6,13-5.7,14-6.8,18.7-57.7,37.4-115.4,56.1-173.1l-2.8,214.7h62.1l1.2-392.6h-82.9ZM143.9,294.6c-15,24.2-35.1,36.3-44.5,41.3V122.8c9.7,5.2,27.4,16.3,41.7,37.3,19.7,28.9,20.3,58.4,20,69.3.4,10.4,0,37.5-17.2,65.3Z"/>
    </g>
  </g>
</svg>