<?xml version="1.0" encoding="UTF-8"?>
<svg id="Layer_1" xmlns="http://www.w3.org/2000/svg" version="1.1" viewBox="0 0 500 500">
  <!-- Generator: Adobe Illustrator 29.2.1, SVG Export Plug-In . SVG Version: 2.1.0 Build 116)  -->
  <defs>
    <style>
      .st0 {
        fill: none;
      }

      .st0, .st1 {
        stroke: #111317;
      }

      .st0, .st1, .st2 {
        stroke-miterlimit: 10;
      }

      .st3 {
        fill: #fff;
      }

      .st1, .st4 {
        fill: #111317;
      }

      .st5 {
        fill: #ddd;
      }

      .st2 {
        stroke: #888;
        stroke-width: 10px;
      }

      .st2, .st6 {
        fill: #888;
      }
    </style>
  </defs>
  <rect class="st6" x="23" y="36.8" width="450" height="450" rx="50.1" ry="50.1"/>
  <g id="Layer_3">
    <g>
      <g>
        <rect class="st5" x="24" y="17.8" width="450" height="450" rx="50.1" ry="50.1"/>
        <path class="st4" d="M429.9,473.8H68.1c-27.7,0-50.1-22.4-50.1-50.1V61.8c0-27.7,22.4-50.1,50.1-50.1h361.8c27.7,0,50.1,22.4,50.1,50.1v361.8c0,27.7-22.4,50.1-50.1,50.1h0ZM80.1,461.8h337.8c27.7,0,50.1-22.4,50.1-50.1V73.8c0-27.7-22.4-50.1-50.1-50.1H80.1c-27.7,0-50.1,22.4-50.1,50.1v337.8c0,27.7,22.4,50.1,50.1,50.1Z"/>
      </g>
      <polygon class="st3" points="34.3 34.4 74 69.3 468 69.3 464.2 44.2 443 23.8 50.8 23.8 34.3 34.4"/>
      <polygon class="st6" points="463.3 30.1 428.4 69.7 428.4 461.8 453.6 458 474 436.9 474 46.6 463.3 30.1"/>
      <polygon class="st3" points="38.6 462.2 73.5 422.5 73.5 28.8 48.4 32.6 27.9 53.8 27.9 445.6 38.6 462.2"/>
      <polygon class="st6" points="34 457.1 73.8 422.2 468 422.2 464.2 447.3 443 467.8 50.6 467.8 34 457.1"/>
      <g>
        <rect class="st0" x="24" y="17.8" width="450" height="450" rx="50.1" ry="50.1"/>
        <path class="st1" d="M429.9,473.8H68.1c-27.7,0-50.1-22.4-50.1-50.1V61.8c0-27.7,22.4-50.1,50.1-50.1h361.8c27.7,0,50.1,22.4,50.1,50.1v361.8c0,27.7-22.4,50.1-50.1,50.1h0ZM80.1,461.8h337.8c27.7,0,50.1-22.4,50.1-50.1V73.8c0-27.7-22.4-50.1-50.1-50.1H80.1c-27.7,0-50.1,22.4-50.1,50.1v337.8c0,27.7,22.4,50.1,50.1,50.1Z"/>
      </g>
    </g>
  </g>
  <g>
    <path class="st2" d="M85.5,246.4c3-5.2,6.3-10.3,9.8-15.3,26.6-38,66.4-68.8,111.3-80.6,76-20,149.5,11.2,196.7,71.4,4.2,5.3,12.7,16.2,15.2,22,3.5,8.2-2.9,15-7.4,21.5-51,74.8-146.4,115.2-230,73-51.8-26.1-77.2-58.8-88.3-77.4-5.3-9-7.3-14.6-7.3-14.6ZM243.3,165.6c-55.7,3.3-104.6,37.7-134.9,83.1,37.5,57.2,101.2,93.2,170.9,81.5,48.4-8.2,90.1-40.8,117.2-80.7v-1.2c-34.5-50.8-89.9-86.4-153.2-82.7h0Z"/>
    <path class="st2" d="M246.5,186.5c56.1-5,90.5,60.9,53.3,103.6-26.5,30.4-73.9,28.2-97.8-4-28.9-38.8-3.4-95.3,44.5-99.6h0ZM247.8,207.4c-53.2,5.4-46.6,87.5,8.3,83.3,54.3-4.2,48.2-89.1-8.3-83.3h0Z"/>
  </g>
</svg>