<?xml version="1.0" encoding="UTF-8"?>
<svg id="Layer_1" xmlns="http://www.w3.org/2000/svg" version="1.1" viewBox="0 0 500 500">
  <!-- Generator: Adobe Illustrator 29.2.1, SVG Export Plug-In . SVG Version: 2.1.0 Build 116)  -->
  <defs>
    <style>
      .st0 {
        fill: none;
      }

      .st0, .st1 {
        stroke: #111317;
        stroke-miterlimit: 10;
      }

      .st1, .st2 {
        fill: #111317;
      }

      .st3 {
        fill: #1d4332;
      }

      .st4 {
        fill: #2d6c51;
      }
    </style>
  </defs>
  <g id="Layer_3">
    <g>
      <g>
        <rect class="st4" x="25" y="25" width="450" height="450" rx="50.1" ry="50.1"/>
        <path class="st2" d="M430.9,481H69.1c-27.7,0-50.1-22.4-50.1-50.1V69.1c0-27.7,22.4-50.1,50.1-50.1h361.8c27.7,0,50.1,22.4,50.1,50.1v361.8c0,27.7-22.4,50.1-50.1,50.1h0ZM81.1,469h337.8c27.7,0,50.1-22.4,50.1-50.1V81.1c0-27.7-22.4-50.1-50.1-50.1H81.1c-27.7,0-50.1,22.4-50.1,50.1v337.8c0,27.7,22.4,50.1,50.1,50.1Z"/>
      </g>
      <polygon class="st3" points="35.3 41.7 75 76.6 469 76.6 465.2 51.4 444 31 51.8 31 35.3 41.7"/>
      <polygon class="st3" points="464.3 37.3 429.4 76.9 429.4 469 454.6 465.2 475 444.1 475 53.8 464.3 37.3"/>
      <polygon class="st3" points="39.6 469.5 74.5 429.7 74.5 36 49.4 39.8 28.9 61 28.9 452.9 39.6 469.5"/>
      <polygon class="st3" points="35 464.3 74.8 429.4 469 429.4 465.2 454.6 444 475 51.6 475 35 464.3"/>
      <g>
        <rect class="st0" x="25" y="25" width="450" height="450" rx="50.1" ry="50.1"/>
        <path class="st1" d="M430.9,481H69.1c-27.7,0-50.1-22.4-50.1-50.1V69.1c0-27.7,22.4-50.1,50.1-50.1h361.8c27.7,0,50.1,22.4,50.1,50.1v361.8c0,27.7-22.4,50.1-50.1,50.1h0ZM81.1,469h337.8c27.7,0,50.1-22.4,50.1-50.1V81.1c0-27.7-22.4-50.1-50.1-50.1H81.1c-27.7,0-50.1,22.4-50.1,50.1v337.8c0,27.7,22.4,50.1,50.1,50.1Z"/>
      </g>
    </g>
  </g>
  <g>
    <path class="st3" d="M259.8,415.9h-19l-24.6-3.6c-66-13.9-118.3-69.9-126.9-137.1-.5-4-.4-8.4-1.4-12.3.3-6.3-.4-12.7,0-19,7.7-138.8,178.7-204.4,277.5-105.3,98.8,99.1,33.1,269.2-105.6,277.3ZM240,118.4c-96.3,6.3-154.9,113-109.3,198.5,44.8,84.1,162,97.2,223.4,23.5,76.8-92.3,5.2-229.8-114-222Z"/>
    <path class="st3" d="M189.6,342.3c-1.3-1.1-2.3-3.1-3.4-4.5l-.6-155.1c3.8-11.7,13.9-13.3,25.8-7.4,42,20.7,82.1,52.1,124.2,73.6,8.1,5.5,8.5,13.1,1.2,19.3l-127,75.2c-5.8,3.3-15,3-20.1-1.1Z"/>
  </g>
</svg>